solid v3d.csg
  facet normal -1.0 0.0 0.0
    outer loop
      vertex -0.5 -0.5 -0.5
      vertex -0.5 -0.5 0.5
      vertex -0.5 0.5 0.5
    endloop
  endfacet
  facet normal -1.0 0.0 0.0
    outer loop
      vertex -0.5 -0.5 -0.5
      vertex -0.5 0.5 0.5
      vertex -0.5 0.5 -0.5
    endloop
  endfacet
  facet normal 1.0 0.0 0.0
    outer loop
      vertex 0.5 -0.5 -0.5
      vertex 0.5 0.5 -0.5
      vertex 0.5 0.5 0.5
    endloop
  endfacet
  facet normal 1.0 0.0 0.0
    outer loop
      vertex 0.5 -0.5 -0.5
      vertex 0.5 0.5 0.5
      vertex 0.5 -0.5 0.5
    endloop
  endfacet
  facet normal -1.0 0.0 0.0
    outer loop
      vertex 2.5 -0.5 -1.0
      vertex 2.5 -0.5 1.0
      vertex 2.5 0.5 1.0
    endloop
  endfacet
  facet normal -1.0 0.0 0.0
    outer loop
      vertex 2.5 -0.5 -1.0
      vertex 2.5 0.5 1.0
      vertex 2.5 0.5 -1.0
    endloop
  endfacet
  facet normal 1.0 0.0 0.0
    outer loop
      vertex 3.5 -0.5 -1.0
      vertex 3.5 0.5 -1.0
      vertex 3.5 0.5 1.0
    endloop
  endfacet
  facet normal 1.0 0.0 0.0
    outer loop
      vertex 3.5 -0.5 -1.0
      vertex 3.5 0.5 1.0
      vertex 3.5 -0.5 1.0
    endloop
  endfacet
  facet normal 0.0 -1.0 0.0
    outer loop
      vertex 2.5 -0.5 -1.0
      vertex 3.5 -0.5 -1.0
      vertex 3.5 -0.5 1.0
    endloop
  endfacet
  facet normal 0.0 -1.0 0.0
    outer loop
      vertex 2.5 -0.5 -1.0
      vertex 3.5 -0.5 1.0
      vertex 2.5 -0.5 1.0
    endloop
  endfacet
  facet normal 0.0 1.0 0.0
    outer loop
      vertex 2.5 0.5 -1.0
      vertex 2.5 0.5 1.0
      vertex 3.5 0.5 1.0
    endloop
  endfacet
  facet normal 0.0 1.0 0.0
    outer loop
      vertex 2.5 0.5 -1.0
      vertex 3.5 0.5 1.0
      vertex 3.5 0.5 -1.0
    endloop
  endfacet
  facet normal 0.0 0.0 -1.0
    outer loop
      vertex 2.5 -0.5 -1.0
      vertex 2.5 0.5 -1.0
      vertex 3.5 0.5 -1.0
    endloop
  endfacet
  facet normal 0.0 0.0 -1.0
    outer loop
      vertex 2.5 -0.5 -1.0
      vertex 3.5 0.5 -1.0
      vertex 3.5 -0.5 -1.0
    endloop
  endfacet
  facet normal 0.0 0.0 1.0
    outer loop
      vertex 2.5 -0.5 1.0
      vertex 3.5 -0.5 1.0
      vertex 3.5 0.5 1.0
    endloop
  endfacet
  facet normal 0.0 0.0 1.0
    outer loop
      vertex 2.5 -0.5 1.0
      vertex 3.5 0.5 1.0
      vertex 2.5 0.5 1.0
    endloop
  endfacet
  facet normal 0.0 -1.0 0.0
    outer loop
      vertex -0.5 -0.5 -0.5
      vertex 0.5 -0.5 -0.5
      vertex 0.5 -0.5 0.5
    endloop
  endfacet
  facet normal 0.0 -1.0 0.0
    outer loop
      vertex -0.5 -0.5 -0.5
      vertex 0.5 -0.5 0.5
      vertex -0.5 -0.5 0.5
    endloop
  endfacet
  facet normal 0.0 1.0 0.0
    outer loop
      vertex -0.5 0.5 -0.5
      vertex -0.5 0.5 0.5
      vertex 0.5 0.5 0.5
    endloop
  endfacet
  facet normal 0.0 1.0 0.0
    outer loop
      vertex -0.5 0.5 -0.5
      vertex 0.5 0.5 0.5
      vertex 0.5 0.5 -0.5
    endloop
  endfacet
  facet normal 0.0 0.0 -1.0
    outer loop
      vertex -0.5 -0.5 -0.5
      vertex -0.5 0.5 -0.5
      vertex 0.5 0.5 -0.5
    endloop
  endfacet
  facet normal 0.0 0.0 -1.0
    outer loop
      vertex -0.5 -0.5 -0.5
      vertex 0.5 0.5 -0.5
      vertex 0.5 -0.5 -0.5
    endloop
  endfacet
  facet normal 0.0 0.0 1.0
    outer loop
      vertex -0.5 -0.5 0.5
      vertex 0.5 -0.5 0.5
      vertex 0.5 0.5 0.5
    endloop
  endfacet
  facet normal 0.0 0.0 1.0
    outer loop
      vertex -0.5 -0.5 0.5
      vertex 0.5 0.5 0.5
      vertex -0.5 0.5 0.5
    endloop
  endfacet
endsolid v3d.csg
